<svg width="24" height="24" viewBox="0 0 24 24" fill="none" xmlns="http://www.w3.org/2000/svg">
<path d="M12.5 14C13.8807 14 15 12.8807 15 11.5C15 10.1193 13.8807 9 12.5 9C11.1193 9 10 10.1193 10 11.5C10 12.8807 11.1193 14 12.5 14Z" stroke="#C7CAD9" stroke-width="1.5" stroke-miterlimit="10" stroke-linecap="round" stroke-linejoin="round"/>
<path d="M12.375 6C8.475 6 4.975 8.1 3.075 11.2C2.975 11.4 2.975 11.7 3.075 12C4.975 15.1 8.475 17.2 12.375 17.2C16.275 17.2 19.775 15.1 21.675 12C21.775 11.8 21.775 11.5 21.675 11.3C19.775 8.1 16.375 6 12.375 6Z" stroke="#C7CAD9" stroke-width="1.5" stroke-miterlimit="10" stroke-linecap="round" stroke-linejoin="round"/>
</svg>
